name GIL08_free1EmgEnv.mot
datacolumns 51
datarows 11
range 0.92962962 0.93888885
endheader
                time	   rect_fem_l_emgRec	   rect_fem_l_emgEnv	   rect_fem_l_emgAve	   rect_fem_l_emgSDp	   rect_fem_l_emgSDm	   rect_fem_r_emgRec	   rect_fem_r_emgEnv	   rect_fem_r_emgAve	   rect_fem_r_emgSDp	   rect_fem_r_emgSDm	   med_hams_l_emgRec	   med_hams_l_emgEnv	   med_hams_l_emgAve	   med_hams_l_emgSDp	   med_hams_l_emgSDm	   med_hams_r_emgRec	   med_hams_r_emgEnv	   med_hams_r_emgAve	   med_hams_r_emgSDp	   med_hams_r_emgSDm	   lat_hams_l_emgRec	   lat_hams_l_emgEnv	   lat_hams_l_emgAve	   lat_hams_l_emgSDp	   lat_hams_l_emgSDm	   lat_hams_r_emgRec	   lat_hams_r_emgEnv	   lat_hams_r_emgAve	   lat_hams_r_emgSDp	   lat_hams_r_emgSDm	    tib_ant_l_emgRec	    tib_ant_l_emgEnv	    tib_ant_l_emgAve	    tib_ant_l_emgSDp	    tib_ant_l_emgSDm	    tib_ant_r_emgRec	    tib_ant_r_emgEnv	    tib_ant_r_emgAve	    tib_ant_r_emgSDp	    tib_ant_r_emgSDm	    gas_sol_l_emgRec	    gas_sol_l_emgEnv	    gas_sol_l_emgAve	    gas_sol_l_emgSDp	    gas_sol_l_emgSDm	    gas_sol_r_emgRec	    gas_sol_r_emgEnv	    gas_sol_r_emgAve	    gas_sol_r_emgSDp	    gas_sol_r_emgSDm	
          0.92962962	          0.00823627	          0.06254275	          0.06243406	          0.10252998	          0.02233814	          0.15479594	          0.26089822	          0.56119490	          0.99616131	          0.12622848	          0.01014866	          0.03448818	          0.06172141	          0.12792685	         -0.00448403	          0.00893227	          0.03827067	          0.07443387	          0.12144405	          0.02742369	          0.00658374	          0.02361371	          0.02004954	          0.04119942	         -0.00110034	          0.02012364	          0.12596478	          0.27726421	          0.54360703	          0.01092139	          0.03927721	          0.31775506	          0.22669286	          0.38926774	          0.06411797	          0.00971190	          0.14610542	          0.33502674	          0.66557837	          0.00447512	          0.02527217	          0.13524074	          0.15869339	          0.22485056	          0.09253622	          0.12090164	          0.69794801	          0.53118473	          0.60663657	          0.45573290	
          0.93055552	          0.00001987	          0.06208498	          0.06199022	          0.10174468	          0.02223577	          0.03886971	          0.25766609	          0.56093550	          0.99497667	          0.12689433	          0.00977019	          0.03458467	          0.06324363	          0.13116751	         -0.00468025	          0.01379428	          0.03835129	          0.07456332	          0.12110414	          0.02802249	          0.01567430	          0.02400679	          0.02014431	          0.04138993	         -0.00110131	          0.00026133	          0.12678334	          0.27693665	          0.54255605	          0.01131725	          0.06270870	          0.31495901	          0.22246292	          0.38442390	          0.06050195	          0.00993052	          0.14599164	          0.33537239	          0.66605744	          0.00468734	         -0.00125933	          0.13486439	          0.15855996	          0.22420165	          0.09291828	          0.04726711	          0.70517189	          0.53270882	          0.60703400	          0.45838365	
          0.93148148	          0.01792345	          0.06162417	          0.06155569	          0.10095961	          0.02215178	          0.05313588	          0.25444258	          0.56063175	          0.99371061	          0.12755290	          0.01228543	          0.03468309	          0.06481744	          0.13447515	         -0.00484026	          0.00509039	          0.03841627	          0.07468211	          0.12075241	          0.02861181	          0.01318847	          0.02440157	          0.02026791	          0.04161339	         -0.00107756	          0.00982684	          0.12755069	          0.27659127	          0.54147187	          0.01171067	          0.00018404	          0.31230961	          0.21829496	          0.37960283	          0.05698709	          0.00234236	          0.14603867	          0.33571327	          0.66651282	          0.00491372	          0.03741154	          0.13448295	          0.15843098	          0.22354584	          0.09331612	          0.04028082	          0.71218816	          0.53423136	          0.60744738	          0.46101535	
          0.93240738	          0.02459781	          0.06115947	          0.06113093	          0.10017566	          0.02208619	          0.09779484	          0.25123536	          0.56028366	          0.99236318	          0.12820414	          0.01302988	          0.03478377	          0.06644258	          0.13784850	         -0.00496335	          0.01053738	          0.03846539	          0.07479019	          0.12038897	          0.02919140	          0.00524826	          0.02479752	          0.02042024	          0.04186966	         -0.00102918	          0.01002746	          0.12826586	          0.27622819	          0.54035485	          0.01210153	          0.01440912	          0.30980025	          0.21418971	          0.37480591	          0.05357350	          0.05266691	          0.14624286	          0.33604902	          0.66694400	          0.00515404	          0.09263545	          0.13409566	          0.15830635	          0.22288334	          0.09372935	          0.05854853	          0.71898904	          0.53575170	          0.60787643	          0.46362697	
          0.93333334	          0.01529125	          0.06069007	          0.06071629	          0.09939352	          0.02203906	          0.10051804	          0.24805192	          0.55989099	          0.99093413	          0.12884784	          0.01310214	          0.03488711	          0.06811911	          0.14128716	         -0.00504894	          0.01081356	          0.03849846	          0.07488746	          0.12001375	          0.02976117	          0.01495573	          0.02519413	          0.02060119	          0.04215864	         -0.00095626	          0.04637143	          0.12892792	          0.27584732	          0.53920487	          0.01248977	          0.00276768	          0.30742411	          0.21014675	          0.37003332	          0.05026019	          0.09558934	          0.14660022	          0.33637971	          0.66735113	          0.00540829	          0.12597187	          0.13370181	          0.15818584	          0.22221410	          0.09415758	          0.13889737	          0.72556698	          0.53727031	          0.60832173	          0.46621889	
          0.93425924	          0.02410173	          0.06021516	          0.06031229	          0.09861413	          0.02201044	          0.14409240	          0.24489959	          0.55945361	          0.98942348	          0.12948373	          0.00698813	          0.03499354	          0.06984664	          0.14478970	         -0.00509643	          0.00141055	          0.03851534	          0.07497393	          0.11962689	          0.03032096	          0.00281797	          0.02559095	          0.02081059	          0.04248013	         -0.00085896	          0.08177665	          0.12953601	          0.27544871	          0.53802216	          0.01287526	          0.01483971	          0.30517419	          0.20616670	          0.36528638	          0.04704702	          0.10546320	          0.14710642	          0.33670518	          0.66773403	          0.00567633	          0.12883398	          0.13330072	          0.15806934	          0.22153828	          0.09460041	          0.16262034	          0.73191477	          0.53878647	          0.60878289	          0.46879005	
          0.93518519	          0.04377757	          0.05973392	          0.05991926	          0.09783819	          0.02200032	          0.21485884	          0.24178550	          0.55897111	          0.98783076	          0.13011146	          0.00402158	          0.03510355	          0.07162526	          0.14835573	         -0.00510520	          0.00092463	          0.03851600	          0.07504952	          0.11922837	          0.03087067	          0.00820338	          0.02598755	          0.02104830	          0.04283400	         -0.00073739	          0.11928323	          0.13008929	          0.27503222	          0.53680658	          0.01325786	          0.01446622	          0.30304328	          0.20224914	          0.36056529	          0.04393299	          0.12845588	          0.14775682	          0.33702517	          0.66809234	          0.00595799	          0.12016791	          0.13289180	          0.15795666	          0.22085591	          0.09505741	          0.12851469	          0.73802547	          0.54030067	          0.60926046	          0.47134087	
          0.93611109	          0.05223060	          0.05924558	          0.05953771	          0.09706668	          0.02200874	          0.23989398	          0.23871654	          0.55844367	          0.98615628	          0.13073105	          0.00989746	          0.03521772	          0.07345453	          0.15198372	         -0.00507466	          0.01892977	          0.03850044	          0.07511420	          0.11881829	          0.03141011	          0.01091517	          0.02638354	          0.02131414	          0.04322001	         -0.00059173	          0.11419209	          0.13058699	          0.27459794	          0.53555849	          0.01363739	          0.01443594	          0.30102401	          0.19839452	          0.35587128	          0.04091777	          0.12325174	          0.14854647	          0.33733973	          0.66842631	          0.00625315	          0.11742730	          0.13247447	          0.15784761	          0.22016712	          0.09552811	          0.05043762	          0.74389248	          0.54181218	          0.60975407	          0.47387029	
          0.93703705	          0.04908611	          0.05874935	          0.05916804	          0.09630035	          0.02203572	          0.20281952	          0.23569942	          0.55787086	          0.98439971	          0.13134202	          0.01548320	          0.03533663	          0.07533449	          0.15567316	         -0.00500418	          0.05495819	          0.03846876	          0.07516792	          0.11839664	          0.03193919	          0.01806154	          0.02677855	          0.02160794	          0.04363800	         -0.00042212	          0.08201264	          0.13102837	          0.27414581	          0.53427768	          0.01401395	          0.04827996	          0.29910888	          0.19460243	          0.35120460	          0.03800026	          0.02289377	          0.14947014	          0.33764857	          0.66873544	          0.00656170	          0.09458381	          0.13204827	          0.15774205	          0.21947196	          0.09601215	          0.09048916	          0.74950954	          0.54332131	          0.61026406	          0.47637856	
          0.93796295	          0.02066312	          0.05824449	          0.05881070	          0.09554019	          0.02208121	          0.14166840	          0.23274059	          0.55725288	          0.98256138	          0.13194439	          0.01995182	          0.03546096	          0.07726464	          0.15942249	         -0.00489321	          0.05442372	          0.03842116	          0.07521068	          0.11796359	          0.03245777	          0.01310929	          0.02717224	          0.02192945	          0.04408767	         -0.00022877	          0.05015702	          0.13141278	          0.27367583	          0.53296447	          0.01438719	          0.01725424	          0.29729024	          0.19087327	          0.34656656	          0.03517997	          0.07602614	          0.15052233	          0.33795160	          0.66901979	          0.00688341	          0.04485592	          0.13161276	          0.15763980	          0.21877061	          0.09650899	          0.17488638	          0.75487078	          0.54482758	          0.61079028	          0.47886489	
          0.93888885	          0.00950721	          0.05773025	          0.05846614	          0.09478705	          0.02214523	          0.06646076	          0.22984623	          0.55658937	          0.98064098	          0.13253775	          0.00927417	          0.03559140	          0.07924484	          0.16323078	         -0.00474111	          0.02907436	          0.03835789	          0.07524243	          0.11751912	          0.03296574	          0.01533531	          0.02756430	          0.02227847	          0.04456881	         -0.00001187	          0.00382075	          0.13173960	          0.27318811	          0.53161904	          0.01475719	          0.04620857	          0.29556032	          0.18720669	          0.34195752	          0.03245585	          0.08596559	          0.15169726	          0.33824876	          0.66927928	          0.00721824	          0.00771818	          0.13116759	          0.15754060	          0.21806307	          0.09701814	          0.14906416	          0.75997071	          0.54633105	          0.61133289	          0.48132920	
